<?xml version="1.0" encoding="utf-8"?>
<!-- Generator: Adobe Illustrator 22.1.0, SVG Export Plug-In . SVG Version: 6.00 Build 0)  -->
<svg version="1.1" id="Layer_1" xmlns="http://www.w3.org/2000/svg" xmlns:xlink="http://www.w3.org/1999/xlink" x="0px" y="0px"
	 viewBox="0 0 24 24" style="enable-background:new 0 0 24 24;" xml:space="preserve">
<style type="text/css">
	.st0{fill:#FFFFFF;stroke:#FFFFFF;stroke-width:0.5;stroke-miterlimit:10;}
</style>
<path class="st0" d="M0.3,6.7h6.5V0.3H0.3V6.7z M1.7,1.7h3.7v3.7H1.7V1.7z"/>
<path class="st0" d="M17.3,0.3v6.5h6.5V0.3H17.3z M22.4,5.3h-3.7V1.7h3.7V5.3z"/>
<path class="st0" d="M8.8,6.7h6.5V0.3H8.8V6.7z M10.2,1.7h3.7v3.7h-3.7V1.7z"/>
<path class="st0" d="M13,15.2h6.5V8.8H13V15.2z M14.4,10.2h3.7v3.7h-3.7V10.2z"/>
<path class="st0" d="M4.2,15.2h6.5V8.8H4.2V15.2z M5.6,10.2h3.7v3.7H5.6V10.2z"/>
<path class="st0" d="M0.3,23.7h6.5v-6.5H0.3V23.7z M1.7,18.7h3.7v3.7H1.7V18.7z"/>
<path class="st0" d="M17.3,17.3v6.5h6.5v-6.5H17.3z M22.4,22.3h-3.7v-3.7h3.7V22.3z"/>
<path class="st0" d="M8.8,23.7h6.5v-6.5H8.8V23.7z M10.2,18.7h3.7v3.7h-3.7V18.7z"/>
</svg>
