<?xml version="1.0" encoding="utf-8"?>
<!-- Generator: Adobe Illustrator 22.1.0, SVG Export Plug-In . SVG Version: 6.00 Build 0)  -->
<svg version="1.1" id="Layer_1" xmlns="http://www.w3.org/2000/svg" xmlns:xlink="http://www.w3.org/1999/xlink" x="0px" y="0px"
	 viewBox="0 0 24 24" style="enable-background:new 0 0 24 24;" xml:space="preserve">
<style type="text/css">
	.st0{fill:#FFFFFF;stroke:#FFFFFF;stroke-width:0.25;stroke-miterlimit:10;}
</style>
<path class="st0" d="M13.8,10.1h10V0.2h-10V10.1z M15.9,2.4h5.7v5.7h-5.7C15.9,8.1,15.9,2.4,15.9,2.4z"/>
<path class="st0" d="M0.2,10.1h10V0.2h-10V10.1z M2.4,2.4h5.7v5.7H2.4V2.4z"/>
<path class="st0" d="M13.8,23.8h10v-9.8h-10V23.8z M15.9,16.1h5.7v5.7h-5.7C15.9,21.8,15.9,16.1,15.9,16.1z"/>
<path class="st0" d="M0.2,23.8h10v-9.8h-10V23.8z M2.4,16.1h5.7v5.7H2.4V16.1z"/>
</svg>
