<?xml version="1.0" encoding="utf-8"?>
<!-- Generator: Adobe Illustrator 22.1.0, SVG Export Plug-In . SVG Version: 6.00 Build 0)  -->
<svg version="1.1" id="Layer_1" xmlns="http://www.w3.org/2000/svg" xmlns:xlink="http://www.w3.org/1999/xlink" x="0px" y="0px"
	 viewBox="0 0 24 24" style="enable-background:new 0 0 24 24;" xml:space="preserve">
<style type="text/css">
	.st0{fill:#FFFFFF;}
</style>
<path class="st0" d="M12,0H0.4C0.3,0,0.2,0.1,0.1,0.2C0,0.4,0,0.6,0,0.8v1.6C0,2.7,0,2.8,0.1,3c0.1,0.2,0.2,0.2,0.3,0.2H12
	c0.1,0,0.2-0.1,0.3-0.2c0.1-0.2,0.1-0.4,0.1-0.6V0.8c0-0.2,0-0.4-0.1-0.6C12.2,0.1,12.1,0,12,0z"/>
<path class="st0" d="M23.8,0h-7.4c-0.1,0-0.1,0.1-0.2,0.2c0,0.2-0.1,0.4-0.1,0.6v1.6c0,0.2,0,0.4,0.1,0.6c0,0.2,0.1,0.2,0.2,0.2h7.4
	c0.1,0,0.1-0.1,0.2-0.2C24,2.8,24,2.7,24,2.4V0.8c0-0.2,0-0.4-0.1-0.6C23.9,0.1,23.8,0,23.8,0z"/>
<path class="st0" d="M12,7H0.4C0.3,7,0.2,7.1,0.1,7.2C0,7.4,0,7.6,0,7.8v1.6C0,9.7,0,9.8,0.1,10c0.1,0.2,0.2,0.2,0.3,0.2H12
	c0.1,0,0.2-0.1,0.3-0.2c0.1-0.2,0.1-0.4,0.1-0.6V7.8c0-0.2,0-0.4-0.1-0.6C12.2,7.1,12.1,7,12,7z"/>
<path class="st0" d="M23.8,7h-7.4c-0.1,0-0.1,0.1-0.2,0.2c0,0.2-0.1,0.4-0.1,0.6v1.6c0,0.2,0,0.4,0.1,0.6c0,0.2,0.1,0.2,0.2,0.2h7.4
	c0.1,0,0.1-0.1,0.2-0.2C24,9.8,24,9.7,24,9.4V7.8c0-0.2,0-0.4-0.1-0.6C23.9,7.1,23.8,7,23.8,7z"/>
<path class="st0" d="M12,14H0.4c-0.1,0-0.2,0.1-0.3,0.2C0,14.4,0,14.6,0,14.8v1.6c0,0.2,0,0.4,0.1,0.6c0.1,0.2,0.2,0.2,0.3,0.2H12
	c0.1,0,0.2-0.1,0.3-0.2c0.1-0.2,0.1-0.4,0.1-0.6v-1.6c0-0.2,0-0.4-0.1-0.6C12.2,14.1,12.1,14,12,14z"/>
<path class="st0" d="M23.8,14h-7.4c-0.1,0-0.1,0.1-0.2,0.2c0,0.2-0.1,0.4-0.1,0.6v1.6c0,0.2,0,0.4,0.1,0.6c0,0.2,0.1,0.2,0.2,0.2
	h7.4c0.1,0,0.1-0.1,0.2-0.2c0-0.2,0.1-0.4,0.1-0.6v-1.6c0-0.2,0-0.4-0.1-0.6C23.9,14.1,23.8,14,23.8,14z"/>
<path class="st0" d="M12,20.8H0.4c-0.1,0-0.2,0.1-0.3,0.2C0,21.2,0,21.3,0,21.6v1.6c0,0.2,0,0.4,0.1,0.6C0.2,23.9,0.3,24,0.4,24H12
	c0.1,0,0.2-0.1,0.3-0.2c0.1-0.2,0.1-0.4,0.1-0.6v-1.6c0-0.2,0-0.4-0.1-0.6C12.2,20.8,12.1,20.8,12,20.8z"/>
<path class="st0" d="M23.8,20.8h-7.4c-0.1,0-0.1,0.1-0.2,0.2c0,0.2-0.1,0.4-0.1,0.6v1.6c0,0.2,0,0.4,0.1,0.6c0,0.2,0.1,0.2,0.2,0.2
	h7.4c0.1,0,0.1-0.1,0.2-0.2c0-0.2,0.1-0.4,0.1-0.6v-1.6c0-0.2,0-0.4-0.1-0.6C23.9,20.8,23.8,20.8,23.8,20.8z"/>
</svg>
